# Blender v2.77 (sub 0) OBJ File: 'i-beam.blend'
# www.blender.org
mtllib i-beam.mtl
o Cube_Cube.001
v -0.612130 -0.079048 4.471682
v -0.612130 1.131978 4.471682
v -0.612130 -0.079048 -4.844773
v -0.612130 1.131978 -4.844773
v 0.598897 -0.079048 4.471682
v 0.598897 1.131978 4.471682
v 0.598897 -0.079048 -4.844773
v 0.598897 1.131978 -4.844773
v 0.598897 0.666098 4.471682
v -0.612130 0.685569 4.471682
v 0.598897 0.325724 4.471682
v -0.612130 0.308490 4.471682
v 0.598897 0.296461 4.126524
v 0.598897 0.640906 4.148884
v -0.612130 0.699710 4.199940
v -0.612130 0.367872 4.151041
v -0.612130 0.788688 -4.844773
v 0.598897 0.818026 -4.844773
v -0.612130 0.351920 -4.844773
v 0.598897 0.343913 -4.844773
v -0.612130 0.346967 -4.462729
v -0.612130 0.798267 -4.482722
v 0.598897 0.827062 -4.499104
v 0.598897 0.305797 -4.469625
v -0.631168 0.806150 -4.499755
v -0.622249 0.344539 -4.458733
vn -1.0000 -0.0000 0.0000
vn 0.0000 0.0000 -1.0000
vn 1.0000 -0.0000 0.0000
vn 0.0000 0.0000 1.0000
vn 0.0000 -1.0000 0.0000
vn 0.0000 1.0000 0.0000
vn 0.0228 0.9987 0.0452
vn 0.0254 -0.1048 0.9942
vn -0.0319 -0.9993 0.0186
vn -0.0096 -0.0717 -0.9974
vn 0.0242 -0.9994 0.0263
vn 0.0204 0.9982 0.0568
usemtl None
s off
f 2//1 4//1 17//1 22//1 21//1 19//1 3//1 1//1 12//1 16//1 15//1 10//1
f 4//2 8//2 18//2 17//2
f 8//3 6//3 9//3 14//3 13//3 11//3 5//3 7//3 20//3 24//3 23//3 18//3
f 6//4 2//4 10//4 9//4
f 1//5 3//5 7//5 5//5
f 6//6 8//6 4//6 2//6
f 13//7 16//7 12//7 11//7
f 11//4 12//4 1//4 5//4
f 16//8 13//8 14//8 15//8
f 10//9 15//9 14//9 9//9
f 19//2 20//2 7//2 3//2
f 26//10 21//10 22//10 25//10 23//10 24//10
f 18//11 23//11 22//11 17//11
f 20//12 19//12 21//12 24//12
